<?xml version="1.0" encoding="UTF-8" standalone="no"?>
<!DOCTYPE svg PUBLIC "-//W3C//DTD SVG 1.1//EN"
 "http://www.w3.org/Graphics/SVG/1.1/DTD/svg11.dtd">
<!-- Generated by graphviz version 7.1.0 (20230121.1956)
 -->
<!-- Pages: 1 -->
<svg width="1316pt" height="1082pt"
 viewBox="0.00 0.00 1316.00 1081.53" xmlns="http://www.w3.org/2000/svg" xmlns:xlink="http://www.w3.org/1999/xlink">
<g id="graph0" class="graph" transform="scale(1 1) rotate(0) translate(4 1077.53)">
<polygon fill="white" stroke="none" points="-4,4 -4,-1077.53 1312,-1077.53 1312,4 -4,4"/>
<!-- 0 -->
<g id="node1" class="node">
<title>0</title>
<ellipse fill="none" stroke="black" cx="619" cy="-1036.06" rx="58.88" ry="37.45"/>
<text text-anchor="start" x="585.5" y="-1047.36" font-family="Times New Roman,serif" font-size="14.00">26</text>
<text text-anchor="start" x="585.5" y="-1032.36" font-family="Times New Roman,serif" font-size="14.00">ID: [&quot;alice&quot;]</text>
<text text-anchor="middle" x="619" y="-1017.36" font-family="Times New Roman,serif" font-size="14.00">&quot;{0}&quot;</text>
</g>
<!-- 0&#45;&gt;0 -->
<g id="edge7" class="edge">
<title>0&#45;&gt;0</title>
<path fill="none" stroke="black" d="M668.42,-1056.84C683.69,-1056.42 695.69,-1049.49 695.69,-1036.06 695.69,-1026.19 689.22,-1019.83 679.73,-1016.99"/>
<polygon fill="black" stroke="black" points="680.33,-1013.54 669.92,-1015.5 679.28,-1020.46 680.33,-1013.54"/>
</g>
<!-- 1 -->
<g id="node2" class="node">
<title>1</title>
<ellipse fill="none" stroke="black" cx="568" cy="-37.48" rx="34.8" ry="37.45"/>
<text text-anchor="start" x="551.5" y="-48.78" font-family="Times New Roman,serif" font-size="14.00">33</text>
<text text-anchor="start" x="551.5" y="-33.78" font-family="Times New Roman,serif" font-size="14.00">ID: </text>
<text text-anchor="middle" x="568" y="-18.78" font-family="Times New Roman,serif" font-size="14.00">&quot;{0}&quot;</text>
</g>
<!-- 0&#45;&gt;1 -->
<g id="edge73" class="edge">
<title>0&#45;&gt;1</title>
<path fill="none" stroke="black" d="M677.15,-1029.14C843.26,-1010.66 1308,-947.15 1308,-815.15 1308,-815.15 1308,-815.15 1308,-258.38 1308,-191.6 1250.74,-156.64 1140,-110.95 1044.74,-71.65 732.71,-48.69 614.21,-41.2"/>
<polygon fill="black" stroke="black" points="614.74,-37.73 604.54,-40.6 614.31,-44.72 614.74,-37.73"/>
</g>
<!-- 3 -->
<g id="node4" class="node">
<title>3</title>
<ellipse fill="none" stroke="black" cx="331" cy="-925.1" rx="58.88" ry="37.45"/>
<text text-anchor="start" x="297.5" y="-936.4" font-family="Times New Roman,serif" font-size="14.00">36</text>
<text text-anchor="start" x="297.5" y="-921.4" font-family="Times New Roman,serif" font-size="14.00">ID: [&quot;alice&quot;]</text>
<text text-anchor="middle" x="331" y="-906.4" font-family="Times New Roman,serif" font-size="14.00">&quot;{0}&quot;</text>
</g>
<!-- 0&#45;&gt;3 -->
<g id="edge52" class="edge">
<title>0&#45;&gt;3</title>
<path fill="none" stroke="black" d="M567.28,-1017.43C517.39,-999.29 442.09,-970.88 389.92,-950.56"/>
<polygon fill="black" stroke="black" points="391.48,-947.42 380.89,-947.04 388.93,-953.94 391.48,-947.42"/>
</g>
<!-- 8 -->
<g id="node9" class="node">
<title>8</title>
<ellipse fill="none" stroke="black" cx="765" cy="-148.43" rx="58.88" ry="37.45"/>
<text text-anchor="start" x="731.5" y="-159.73" font-family="Times New Roman,serif" font-size="14.00">32</text>
<text text-anchor="start" x="731.5" y="-144.73" font-family="Times New Roman,serif" font-size="14.00">ID: [&quot;alice&quot;]</text>
<text text-anchor="middle" x="765" y="-129.73" font-family="Times New Roman,serif" font-size="14.00">&quot;{0}&quot;</text>
</g>
<!-- 0&#45;&gt;8 -->
<g id="edge53" class="edge">
<title>0&#45;&gt;8</title>
<path fill="none" stroke="black" d="M674.01,-1021.91C821.47,-984.32 1214,-861.37 1214,-593.24 1214,-593.24 1214,-593.24 1214,-369.34 1214,-201.69 961.54,-161.76 835.18,-152.32"/>
<polygon fill="black" stroke="black" points="835.45,-148.83 825.23,-151.62 834.96,-155.81 835.45,-148.83"/>
</g>
<!-- 9 -->
<g id="node10" class="node">
<title>9</title>
<ellipse fill="none" stroke="black" cx="1031" cy="-259.38" rx="58.88" ry="37.45"/>
<text text-anchor="start" x="997.5" y="-270.68" font-family="Times New Roman,serif" font-size="14.00">30</text>
<text text-anchor="start" x="997.5" y="-255.68" font-family="Times New Roman,serif" font-size="14.00">ID: [&quot;alice&quot;]</text>
<text text-anchor="middle" x="1031" y="-240.68" font-family="Times New Roman,serif" font-size="14.00">&quot;{0}&quot;</text>
</g>
<!-- 0&#45;&gt;9 -->
<g id="edge6" class="edge">
<title>0&#45;&gt;9</title>
<path fill="none" stroke="black" d="M675.23,-1024.06C813.42,-996.51 1158,-919.2 1158,-815.15 1158,-815.15 1158,-815.15 1158,-480.29 1158,-409.88 1139.67,-391.04 1100,-332.86 1091.78,-320.81 1081.22,-309.3 1070.8,-299.15"/>
<polygon fill="black" stroke="black" points="1073.29,-296.68 1063.63,-292.35 1068.48,-301.77 1073.29,-296.68"/>
</g>
<!-- 10 -->
<g id="node11" class="node">
<title>10</title>
<ellipse fill="none" stroke="black" cx="445" cy="-370.34" rx="58.88" ry="37.45"/>
<text text-anchor="start" x="411.5" y="-381.64" font-family="Times New Roman,serif" font-size="14.00">35</text>
<text text-anchor="start" x="411.5" y="-366.64" font-family="Times New Roman,serif" font-size="14.00">ID: [&quot;alice&quot;]</text>
<text text-anchor="middle" x="445" y="-351.64" font-family="Times New Roman,serif" font-size="14.00">&quot;{0}&quot;</text>
</g>
<!-- 0&#45;&gt;10 -->
<g id="edge55" class="edge">
<title>0&#45;&gt;10</title>
<path fill="none" stroke="black" d="M599.93,-1000.16C562.25,-917.98 480.4,-705.12 446,-518.77 439.94,-485.95 437.46,-448.42 437.66,-419.44"/>
<polygon fill="black" stroke="black" points="441.16,-419.56 437.87,-409.49 434.16,-419.42 441.16,-419.56"/>
</g>
<!-- 12 -->
<g id="node13" class="node">
<title>12</title>
<ellipse fill="none" stroke="black" cx="181" cy="-481.29" rx="58.88" ry="37.45"/>
<text text-anchor="start" x="147.5" y="-492.59" font-family="Times New Roman,serif" font-size="14.00">37</text>
<text text-anchor="start" x="147.5" y="-477.59" font-family="Times New Roman,serif" font-size="14.00">ID: [&quot;alice&quot;]</text>
<text text-anchor="middle" x="181" y="-462.59" font-family="Times New Roman,serif" font-size="14.00">&quot;{0}&quot;</text>
</g>
<!-- 0&#45;&gt;12 -->
<g id="edge77" class="edge">
<title>0&#45;&gt;12</title>
<path fill="none" stroke="black" d="M560.6,-1029.73C470.06,-1020.09 301.65,-997.47 254,-962.58 193.51,-918.28 172,-890.13 172,-815.15 172,-815.15 172,-815.15 172,-702.2 172,-642.97 172,-574.77 174,-530.22"/>
<polygon fill="black" stroke="black" points="177.49,-530.54 174.51,-520.38 170.5,-530.18 177.49,-530.54"/>
</g>
<!-- 13 -->
<g id="node14" class="node">
<title>13</title>
<ellipse fill="none" stroke="black" cx="599" cy="-592.24" rx="58.88" ry="37.45"/>
<text text-anchor="start" x="565.5" y="-603.54" font-family="Times New Roman,serif" font-size="14.00">34</text>
<text text-anchor="start" x="565.5" y="-588.54" font-family="Times New Roman,serif" font-size="14.00">ID: [&quot;alice&quot;]</text>
<text text-anchor="middle" x="599" y="-573.54" font-family="Times New Roman,serif" font-size="14.00">&quot;{0}&quot;</text>
</g>
<!-- 0&#45;&gt;13 -->
<g id="edge51" class="edge">
<title>0&#45;&gt;13</title>
<path fill="none" stroke="black" d="M613.42,-998.53C606.23,-919.08 597.54,-730.62 596.78,-641.51"/>
<polygon fill="black" stroke="black" points="600.28,-641.63 596.73,-631.64 593.28,-641.66 600.28,-641.63"/>
</g>
<!-- 14 -->
<g id="node15" class="node">
<title>14</title>
<ellipse fill="none" stroke="black" cx="751" cy="-814.15" rx="58.88" ry="37.45"/>
<text text-anchor="start" x="717.5" y="-825.45" font-family="Times New Roman,serif" font-size="14.00">14</text>
<text text-anchor="start" x="717.5" y="-810.45" font-family="Times New Roman,serif" font-size="14.00">ID: [&quot;alice&quot;]</text>
<text text-anchor="middle" x="751" y="-795.45" font-family="Times New Roman,serif" font-size="14.00">&quot;{0}&quot;</text>
</g>
<!-- 0&#45;&gt;14 -->
<g id="edge29" class="edge">
<title>0&#45;&gt;14</title>
<path fill="none" stroke="black" d="M635.09,-999.72C656.25,-961.06 693.33,-899.08 719.96,-857.75"/>
<polygon fill="black" stroke="black" points="722.81,-859.8 725.32,-849.5 716.94,-855.98 722.81,-859.8"/>
</g>
<!-- 2 -->
<g id="node3" class="node">
<title>2</title>
<ellipse fill="none" stroke="black" cx="861" cy="-481.29" rx="58.88" ry="37.45"/>
<text text-anchor="start" x="827.5" y="-492.59" font-family="Times New Roman,serif" font-size="14.00">2</text>
<text text-anchor="start" x="827.5" y="-477.59" font-family="Times New Roman,serif" font-size="14.00">ID: [&quot;alice&quot;]</text>
<text text-anchor="middle" x="861" y="-462.59" font-family="Times New Roman,serif" font-size="14.00">&quot;{0}&quot;</text>
</g>
<!-- 2&#45;&gt;2 -->
<g id="edge42" class="edge">
<title>2&#45;&gt;2</title>
<path fill="none" stroke="black" d="M910.42,-502.07C925.69,-501.65 937.69,-494.73 937.69,-481.29 937.69,-471.42 931.22,-465.07 921.73,-462.22"/>
<polygon fill="black" stroke="black" points="922.33,-458.77 911.92,-460.73 921.28,-465.69 922.33,-458.77"/>
</g>
<!-- 11 -->
<g id="node12" class="node">
<title>11</title>
<ellipse fill="none" stroke="black" cx="847" cy="-592.24" rx="58.88" ry="37.45"/>
<text text-anchor="start" x="813.5" y="-603.54" font-family="Times New Roman,serif" font-size="14.00">11</text>
<text text-anchor="start" x="813.5" y="-588.54" font-family="Times New Roman,serif" font-size="14.00">ID: [&quot;alice&quot;]</text>
<text text-anchor="middle" x="847" y="-573.54" font-family="Times New Roman,serif" font-size="14.00">&quot;{0}&quot;</text>
</g>
<!-- 2&#45;&gt;11 -->
<g id="edge44" class="edge">
<title>2&#45;&gt;11</title>
<path fill="none" stroke="black" d="M862.69,-519.16C861.98,-527.01 860.99,-535.41 859.82,-543.6"/>
<polygon fill="black" stroke="black" points="856.37,-543.05 858.3,-553.47 863.29,-544.12 856.37,-543.05"/>
</g>
<!-- 3&#45;&gt;0 -->
<g id="edge68" class="edge">
<title>3&#45;&gt;0</title>
<path fill="none" stroke="black" d="M382.44,-943.63C432.23,-961.73 507.53,-990.14 559.78,-1010.48"/>
<polygon fill="black" stroke="black" points="558.24,-1013.63 568.83,-1014.01 560.79,-1007.11 558.24,-1013.63"/>
</g>
<!-- 3&#45;&gt;1 -->
<g id="edge58" class="edge">
<title>3&#45;&gt;1</title>
<path fill="none" stroke="black" d="M329.88,-887.23C329.56,-875.82 329.24,-863.2 329,-851.63 325.62,-687.5 324,-646.45 324,-482.29 324,-482.29 324,-482.29 324,-258.38 324,-151.66 454.39,-83.45 524.54,-54.48"/>
<polygon fill="black" stroke="black" points="525.47,-57.88 533.44,-50.9 522.85,-51.39 525.47,-57.88"/>
</g>
<!-- 3&#45;&gt;3 -->
<g id="edge76" class="edge">
<title>3&#45;&gt;3</title>
<path fill="none" stroke="black" d="M380.42,-945.89C395.69,-945.47 407.69,-938.54 407.69,-925.1 407.69,-915.24 401.22,-908.88 391.73,-906.03"/>
<polygon fill="black" stroke="black" points="392.33,-902.58 381.92,-904.55 391.28,-909.5 392.33,-902.58"/>
</g>
<!-- 4 -->
<g id="node5" class="node">
<title>4</title>
<ellipse fill="none" stroke="black" cx="219" cy="-259.38" rx="58.88" ry="37.45"/>
<text text-anchor="start" x="185.5" y="-270.68" font-family="Times New Roman,serif" font-size="14.00">38</text>
<text text-anchor="start" x="185.5" y="-255.68" font-family="Times New Roman,serif" font-size="14.00">ID: [&quot;alice&quot;]</text>
<text text-anchor="middle" x="219" y="-240.68" font-family="Times New Roman,serif" font-size="14.00">&quot;{0}&quot;</text>
</g>
<!-- 3&#45;&gt;4 -->
<g id="edge28" class="edge">
<title>3&#45;&gt;4</title>
<path fill="none" stroke="black" d="M278.82,-907.08C204.12,-877.64 76,-810.03 76,-704.2 76,-704.2 76,-704.2 76,-480.29 76,-406.73 131.35,-336.89 173.29,-296.37"/>
<polygon fill="black" stroke="black" points="175.5,-299.11 180.38,-289.7 170.7,-294.01 175.5,-299.11"/>
</g>
<!-- 6 -->
<g id="node7" class="node">
<title>6</title>
<ellipse fill="none" stroke="black" cx="132" cy="-148.43" rx="34.8" ry="37.45"/>
<text text-anchor="start" x="115.5" y="-159.73" font-family="Times New Roman,serif" font-size="14.00">39</text>
<text text-anchor="start" x="115.5" y="-144.73" font-family="Times New Roman,serif" font-size="14.00">ID: </text>
<text text-anchor="middle" x="132" y="-129.73" font-family="Times New Roman,serif" font-size="14.00">&quot;{0}&quot;</text>
</g>
<!-- 3&#45;&gt;6 -->
<g id="edge38" class="edge">
<title>3&#45;&gt;6</title>
<path fill="none" stroke="black" d="M274.48,-913.51C179.94,-892.16 0,-834.42 0,-704.2 0,-704.2 0,-704.2 0,-369.34 0,-293.47 58.47,-221.18 97.58,-181.31"/>
<polygon fill="black" stroke="black" points="99.93,-183.92 104.53,-174.38 94.98,-178.96 99.93,-183.92"/>
</g>
<!-- 3&#45;&gt;10 -->
<g id="edge30" class="edge">
<title>3&#45;&gt;10</title>
<path fill="none" stroke="black" d="M327.32,-887.48C326.4,-805.69 340.03,-602.84 395,-443.81 398.65,-433.26 403.83,-422.47 409.53,-412.56"/>
<polygon fill="black" stroke="black" points="412.37,-414.63 414.58,-404.27 406.39,-410.99 412.37,-414.63"/>
</g>
<!-- 3&#45;&gt;12 -->
<g id="edge31" class="edge">
<title>3&#45;&gt;12</title>
<path fill="none" stroke="black" d="M293.65,-896.1C281.41,-883.51 269.02,-867.84 261,-851.63 201.09,-730.47 230.14,-685.28 195,-554.77 192.83,-546.7 190.33,-538.2 187.93,-529.97"/>
<polygon fill="black" stroke="black" points="191.31,-529.07 185.17,-520.43 184.58,-531.01 191.31,-529.07"/>
</g>
<!-- 3&#45;&gt;13 -->
<g id="edge14" class="edge">
<title>3&#45;&gt;13</title>
<path fill="none" stroke="black" d="M354.13,-890.25C400.75,-828.78 505.69,-699.09 561.95,-633.32"/>
<polygon fill="black" stroke="black" points="564.37,-635.87 568.23,-626 559.06,-631.31 564.37,-635.87"/>
</g>
<!-- 3&#45;&gt;14 -->
<g id="edge69" class="edge">
<title>3&#45;&gt;14</title>
<path fill="none" stroke="black" d="M385.05,-910.08C462.04,-890.11 603.12,-853.51 685.81,-832.06"/>
<polygon fill="black" stroke="black" points="686.56,-835.48 695.36,-829.58 684.8,-828.71 686.56,-835.48"/>
</g>
<!-- 4&#45;&gt;0 -->
<g id="edge34" class="edge">
<title>4&#45;&gt;0</title>
<path fill="none" stroke="black" d="M169.77,-280.4C145.16,-292.49 116.54,-310.02 97,-332.86 51.12,-386.49 38,-409.71 38,-480.29 38,-815.15 38,-815.15 38,-815.15 38,-908.94 105.38,-920.08 189,-962.58 250.8,-993.99 444.23,-1017.55 549.34,-1028.42"/>
<polygon fill="black" stroke="black" points="548.97,-1031.9 559.27,-1029.43 549.68,-1024.93 548.97,-1031.9"/>
</g>
<!-- 4&#45;&gt;1 -->
<g id="edge78" class="edge">
<title>4&#45;&gt;1</title>
<path fill="none" stroke="black" d="M206.69,-222.33C198,-189.58 191.86,-141.81 217,-110.95 254.95,-64.37 435.39,-46.82 521.75,-41.01"/>
<polygon fill="black" stroke="black" points="521.77,-44.52 531.52,-40.38 521.32,-37.54 521.77,-44.52"/>
</g>
<!-- 4&#45;&gt;3 -->
<g id="edge3" class="edge">
<title>4&#45;&gt;3</title>
<path fill="none" stroke="black" d="M190.16,-292.43C153.09,-332.25 94,-404.29 94,-480.29 94,-704.2 94,-704.2 94,-704.2 94,-801.38 202.04,-866.34 272.3,-899.1"/>
<polygon fill="black" stroke="black" points="270.45,-902.1 281,-903.07 273.36,-895.73 270.45,-902.1"/>
</g>
<!-- 4&#45;&gt;4 -->
<g id="edge8" class="edge">
<title>4&#45;&gt;4</title>
<path fill="none" stroke="black" d="M268.42,-280.17C283.69,-279.75 295.69,-272.82 295.69,-259.38 295.69,-249.52 289.22,-243.16 279.73,-240.31"/>
<polygon fill="black" stroke="black" points="280.33,-236.86 269.92,-238.83 279.28,-243.78 280.33,-236.86"/>
</g>
<!-- 5 -->
<g id="node6" class="node">
<title>5</title>
<ellipse fill="none" stroke="black" cx="261" cy="-148.43" rx="34.8" ry="37.45"/>
<text text-anchor="start" x="244.5" y="-159.73" font-family="Times New Roman,serif" font-size="14.00">40</text>
<text text-anchor="start" x="244.5" y="-144.73" font-family="Times New Roman,serif" font-size="14.00">ID: </text>
<text text-anchor="middle" x="261" y="-129.73" font-family="Times New Roman,serif" font-size="14.00">&quot;{0}&quot;</text>
</g>
<!-- 4&#45;&gt;5 -->
<g id="edge24" class="edge">
<title>4&#45;&gt;5</title>
<path fill="none" stroke="black" d="M232.75,-222.71C236.3,-213.51 240.16,-203.5 243.85,-193.91"/>
<polygon fill="black" stroke="black" points="247.05,-195.34 247.39,-184.75 240.52,-192.82 247.05,-195.34"/>
</g>
<!-- 4&#45;&gt;6 -->
<g id="edge50" class="edge">
<title>4&#45;&gt;6</title>
<path fill="none" stroke="black" d="M192.66,-225.4C182.84,-213.1 171.63,-199.06 161.54,-186.43"/>
<polygon fill="black" stroke="black" points="164.35,-184.33 155.38,-178.7 158.88,-188.7 164.35,-184.33"/>
</g>
<!-- 4&#45;&gt;10 -->
<g id="edge39" class="edge">
<title>4&#45;&gt;10</title>
<path fill="none" stroke="black" d="M267.33,-281.07C303.53,-297.79 352.99,-321.53 390.57,-340.18"/>
<polygon fill="black" stroke="black" points="388.97,-343.29 399.48,-344.62 392.09,-337.02 388.97,-343.29"/>
</g>
<!-- 4&#45;&gt;12 -->
<g id="edge41" class="edge">
<title>4&#45;&gt;12</title>
<path fill="none" stroke="black" d="M217.82,-297.29C213.27,-334.66 203.41,-392.59 194.78,-433.23"/>
<polygon fill="black" stroke="black" points="191.37,-432.47 192.65,-442.99 198.21,-433.97 191.37,-432.47"/>
</g>
<!-- 4&#45;&gt;14 -->
<g id="edge80" class="edge">
<title>4&#45;&gt;14</title>
<path fill="none" stroke="black" d="M234.47,-295.76C274.59,-383.6 390.45,-613.69 555,-740.67 592.8,-769.85 643.55,-788.18 683.93,-799.11"/>
<polygon fill="black" stroke="black" points="683,-802.49 693.56,-801.62 684.77,-795.71 683,-802.49"/>
</g>
<!-- 7 -->
<g id="node8" class="node">
<title>7</title>
<ellipse fill="none" stroke="black" cx="903" cy="-703.2" rx="58.88" ry="37.45"/>
<text text-anchor="start" x="869.5" y="-714.5" font-family="Times New Roman,serif" font-size="14.00">31</text>
<text text-anchor="start" x="869.5" y="-699.5" font-family="Times New Roman,serif" font-size="14.00">ID: [&quot;alice&quot;]</text>
<text text-anchor="middle" x="903" y="-684.5" font-family="Times New Roman,serif" font-size="14.00">&quot;{0}&quot;</text>
</g>
<!-- 7&#45;&gt;0 -->
<g id="edge40" class="edge">
<title>7&#45;&gt;0</title>
<path fill="none" stroke="black" d="M891.89,-740.19C881.09,-771.59 862.56,-817.34 837,-851.63 790.16,-914.45 717.79,-969.77 669.44,-1002.81"/>
<polygon fill="black" stroke="black" points="667.69,-999.77 661.36,-1008.27 671.61,-1005.57 667.69,-999.77"/>
</g>
<!-- 7&#45;&gt;1 -->
<g id="edge4" class="edge">
<title>7&#45;&gt;1</title>
<path fill="none" stroke="black" d="M954.03,-683.9C1054.87,-644.1 1270,-539.48 1270,-371.34 1270,-371.34 1270,-371.34 1270,-258.38 1270,-120.39 769.81,-58.67 613.86,-42.78"/>
<polygon fill="black" stroke="black" points="614.62,-39.34 604.32,-41.83 613.92,-46.31 614.62,-39.34"/>
</g>
<!-- 7&#45;&gt;7 -->
<g id="edge16" class="edge">
<title>7&#45;&gt;7</title>
<path fill="none" stroke="black" d="M952.42,-723.98C967.69,-723.56 979.69,-716.63 979.69,-703.2 979.69,-693.33 973.22,-686.97 963.73,-684.13"/>
<polygon fill="black" stroke="black" points="964.33,-680.68 953.92,-682.64 963.28,-687.6 964.33,-680.68"/>
</g>
<!-- 7&#45;&gt;8 -->
<g id="edge43" class="edge">
<title>7&#45;&gt;8</title>
<path fill="none" stroke="black" d="M911.63,-665.98C916.01,-654.6 920.79,-641.83 924,-629.72 945.22,-549.62 960.65,-523.52 938,-443.81 909.82,-344.65 837.66,-246.17 795.84,-192.01"/>
<polygon fill="black" stroke="black" points="798.72,-190.01 789.83,-184.26 793.19,-194.3 798.72,-190.01"/>
</g>
<!-- 7&#45;&gt;9 -->
<g id="edge75" class="edge">
<title>7&#45;&gt;9</title>
<path fill="none" stroke="black" d="M938.34,-672.87C951.94,-661.14 966.22,-646.42 975,-629.72 1029.86,-525.3 1030.39,-382.07 1029.43,-308.43"/>
<polygon fill="black" stroke="black" points="1032.93,-308.68 1029.29,-298.73 1025.93,-308.78 1032.93,-308.68"/>
</g>
<!-- 7&#45;&gt;11 -->
<g id="edge59" class="edge">
<title>7&#45;&gt;11</title>
<path fill="none" stroke="black" d="M884.97,-667.12C880.28,-657.99 875.15,-648.01 870.23,-638.43"/>
<polygon fill="black" stroke="black" points="873.37,-636.89 865.69,-629.6 867.14,-640.09 873.37,-636.89"/>
</g>
<!-- 7&#45;&gt;13 -->
<g id="edge5" class="edge">
<title>7&#45;&gt;13</title>
<path fill="none" stroke="black" d="M850.78,-685.29C797.52,-666.93 715.09,-637.46 659.14,-616.83"/>
<polygon fill="black" stroke="black" points="660.68,-613.67 650.08,-613.48 658.25,-620.23 660.68,-613.67"/>
</g>
<!-- 7&#45;&gt;14 -->
<g id="edge71" class="edge">
<title>7&#45;&gt;14</title>
<path fill="none" stroke="black" d="M867.94,-733.68C848.43,-748.28 823.85,-765.93 802.24,-780.89"/>
<polygon fill="black" stroke="black" points="800.37,-777.92 794.11,-786.47 804.33,-783.69 800.37,-777.92"/>
</g>
<!-- 8&#45;&gt;0 -->
<g id="edge27" class="edge">
<title>8&#45;&gt;0</title>
<path fill="none" stroke="black" d="M823.98,-150.97C949.66,-157.59 1232,-192.05 1232,-369.34 1232,-593.24 1232,-593.24 1232,-593.24 1232,-859.36 845.31,-982.48 686.13,-1021.06"/>
<polygon fill="black" stroke="black" points="685.46,-1017.62 676.54,-1023.34 687.08,-1024.43 685.46,-1017.62"/>
</g>
<!-- 8&#45;&gt;1 -->
<g id="edge54" class="edge">
<title>8&#45;&gt;1</title>
<path fill="none" stroke="black" d="M721.28,-123.25C687.58,-104.61 641.35,-79.04 608.49,-60.87"/>
<polygon fill="black" stroke="black" points="610.52,-58 600.08,-56.22 607.14,-64.12 610.52,-58"/>
</g>
<!-- 8&#45;&gt;3 -->
<g id="edge66" class="edge">
<title>8&#45;&gt;3</title>
<path fill="none" stroke="black" d="M760.28,-186.22C746.53,-291.8 706.18,-590.66 685,-629.72 616.12,-756.74 468.01,-851.16 386.9,-895.68"/>
<polygon fill="black" stroke="black" points="385.33,-892.56 378.21,-900.4 388.66,-898.71 385.33,-892.56"/>
</g>
<!-- 8&#45;&gt;7 -->
<g id="edge62" class="edge">
<title>8&#45;&gt;7</title>
<path fill="none" stroke="black" d="M797.45,-179.72C843.66,-230.19 925.53,-336.6 956,-443.81 978.65,-523.52 963.22,-549.62 942,-629.72 939.47,-639.28 935.95,-649.26 932.02,-658.64"/>
<polygon fill="black" stroke="black" points="928.92,-656.98 928.04,-667.54 935.31,-659.84 928.92,-656.98"/>
</g>
<!-- 8&#45;&gt;8 -->
<g id="edge81" class="edge">
<title>8&#45;&gt;8</title>
<path fill="none" stroke="black" d="M814.42,-169.21C829.69,-168.79 841.69,-161.87 841.69,-148.43 841.69,-138.56 835.22,-132.21 825.73,-129.36"/>
<polygon fill="black" stroke="black" points="826.33,-125.91 815.92,-127.87 825.28,-132.83 826.33,-125.91"/>
</g>
<!-- 8&#45;&gt;9 -->
<g id="edge60" class="edge">
<title>8&#45;&gt;9</title>
<path fill="none" stroke="black" d="M817.92,-165.1C859.22,-178.97 917.46,-200.3 967,-221.91 971.05,-223.67 975.19,-225.55 979.33,-227.48"/>
<polygon fill="black" stroke="black" points="977.67,-230.57 988.2,-231.73 980.69,-224.25 977.67,-230.57"/>
</g>
<!-- 8&#45;&gt;10 -->
<g id="edge63" class="edge">
<title>8&#45;&gt;10</title>
<path fill="none" stroke="black" d="M726.56,-177.23C705.74,-190.41 679.81,-206.59 657,-221.91 600.69,-259.72 537.77,-306.08 495.1,-336.6"/>
<polygon fill="black" stroke="black" points="493.12,-333.71 487,-342.37 497.18,-339.41 493.12,-333.71"/>
</g>
<!-- 8&#45;&gt;13 -->
<g id="edge61" class="edge">
<title>8&#45;&gt;13</title>
<path fill="none" stroke="black" d="M740.51,-182.63C730.84,-194.29 720.41,-207.96 713,-221.91 655.93,-329.34 626.87,-471.28 611.62,-543.94"/>
<polygon fill="black" stroke="black" points="608.25,-543.01 609.61,-553.51 615.09,-544.45 608.25,-543.01"/>
</g>
<!-- 8&#45;&gt;14 -->
<g id="edge82" class="edge">
<title>8&#45;&gt;14</title>
<path fill="none" stroke="black" d="M767.53,-185.95C769.62,-298.32 762.57,-638.99 755.71,-765.33"/>
<polygon fill="black" stroke="black" points="752.24,-764.83 755.16,-775.01 759.23,-765.23 752.24,-764.83"/>
</g>
<!-- 9&#45;&gt;0 -->
<g id="edge57" class="edge">
<title>9&#45;&gt;0</title>
<path fill="none" stroke="black" d="M1072.79,-285.81C1088.77,-298.6 1105.92,-315.14 1118,-332.86 1157.67,-391.04 1176,-409.88 1176,-480.29 1176,-815.15 1176,-815.15 1176,-815.15 1176,-918.49 836.08,-995.46 687.28,-1023.49"/>
<polygon fill="black" stroke="black" points="686.72,-1020.04 677.53,-1025.31 688,-1026.92 686.72,-1020.04"/>
</g>
<!-- 9&#45;&gt;1 -->
<g id="edge10" class="edge">
<title>9&#45;&gt;1</title>
<path fill="none" stroke="black" d="M1001.18,-226.84C967.71,-193.28 910.29,-140.96 851,-110.95 773.1,-71.53 672,-52.36 614.13,-44.02"/>
<polygon fill="black" stroke="black" points="614.69,-40.57 604.31,-42.66 613.73,-47.5 614.69,-40.57"/>
</g>
<!-- 9&#45;&gt;7 -->
<g id="edge13" class="edge">
<title>9&#45;&gt;7</title>
<path fill="none" stroke="black" d="M1039.58,-296.68C1048.28,-365.84 1050.94,-519.42 993,-629.72 984.5,-645.91 970.83,-660.22 956.63,-671.76"/>
<polygon fill="black" stroke="black" points="954.76,-668.79 948.97,-677.66 959.03,-674.34 954.76,-668.79"/>
</g>
<!-- 9&#45;&gt;8 -->
<g id="edge15" class="edge">
<title>9&#45;&gt;8</title>
<path fill="none" stroke="black" d="M982.51,-237.55C971.52,-232.23 959.91,-226.66 949,-221.91 908.09,-204.06 861.25,-186.41 824.99,-172.99"/>
<polygon fill="black" stroke="black" points="826.6,-169.85 816,-169.67 824.17,-176.42 826.6,-169.85"/>
</g>
<!-- 9&#45;&gt;9 -->
<g id="edge17" class="edge">
<title>9&#45;&gt;9</title>
<path fill="none" stroke="black" d="M1080.42,-280.17C1095.69,-279.75 1107.69,-272.82 1107.69,-259.38 1107.69,-249.52 1101.22,-243.16 1091.73,-240.31"/>
<polygon fill="black" stroke="black" points="1092.33,-236.86 1081.92,-238.83 1091.28,-243.78 1092.33,-236.86"/>
</g>
<!-- 9&#45;&gt;10 -->
<g id="edge45" class="edge">
<title>9&#45;&gt;10</title>
<path fill="none" stroke="black" d="M974.94,-271.61C866.82,-292.31 630.12,-336.32 513.13,-357.49"/>
<polygon fill="black" stroke="black" points="512.56,-354.03 503.34,-359.25 513.8,-360.92 512.56,-354.03"/>
</g>
<!-- 9&#45;&gt;13 -->
<g id="edge12" class="edge">
<title>9&#45;&gt;13</title>
<path fill="none" stroke="black" d="M996.44,-289.96C919.75,-351.39 735.66,-492.44 647.51,-557.38"/>
<polygon fill="black" stroke="black" points="645.47,-554.53 639.48,-563.27 649.62,-560.17 645.47,-554.53"/>
</g>
<!-- 9&#45;&gt;14 -->
<g id="edge22" class="edge">
<title>9&#45;&gt;14</title>
<path fill="none" stroke="black" d="M1057.46,-293.3C1083.89,-335.16 1120,-410.41 1120,-480.29 1120,-593.24 1120,-593.24 1120,-593.24 1120,-730.51 927.04,-784.65 820.13,-803.81"/>
<polygon fill="black" stroke="black" points="819.55,-800.36 810.29,-805.51 820.74,-807.26 819.55,-800.36"/>
</g>
<!-- 10&#45;&gt;0 -->
<g id="edge47" class="edge">
<title>10&#45;&gt;0</title>
<path fill="none" stroke="black" d="M452.42,-407.98C454.84,-437.99 457.11,-481.43 464,-518.77 496.86,-696.77 573.01,-898.96 604.96,-988.34"/>
<polygon fill="black" stroke="black" points="601.57,-989.25 608.21,-997.5 608.16,-986.91 601.57,-989.25"/>
</g>
<!-- 10&#45;&gt;1 -->
<g id="edge25" class="edge">
<title>10&#45;&gt;1</title>
<path fill="none" stroke="black" d="M458.28,-333.61C480.88,-272.83 526.75,-149.45 551.41,-83.09"/>
<polygon fill="black" stroke="black" points="554.6,-84.57 554.8,-73.98 548.04,-82.13 554.6,-84.57"/>
</g>
<!-- 10&#45;&gt;3 -->
<g id="edge23" class="edge">
<title>10&#45;&gt;3</title>
<path fill="none" stroke="black" d="M430.01,-406.98C423.86,-418.35 417.35,-431.24 413,-443.81 360.39,-596.01 345.65,-788.34 337.82,-876.28"/>
<polygon fill="black" stroke="black" points="334.36,-875.7 336.94,-885.98 341.33,-876.33 334.36,-875.7"/>
</g>
<!-- 10&#45;&gt;4 -->
<g id="edge46" class="edge">
<title>10&#45;&gt;4</title>
<path fill="none" stroke="black" d="M396.52,-348.59C360.36,-331.88 311.03,-308.2 273.51,-289.58"/>
<polygon fill="black" stroke="black" points="275.13,-286.48 264.61,-285.15 272,-292.74 275.13,-286.48"/>
</g>
<!-- 10&#45;&gt;8 -->
<g id="edge67" class="edge">
<title>10&#45;&gt;8</title>
<path fill="none" stroke="black" d="M478.02,-339.08C516.31,-308.64 581.14,-260.76 639,-221.91 661.36,-206.89 686.72,-191.04 708.86,-178.01"/>
<polygon fill="black" stroke="black" points="710.6,-181.05 717.48,-173 707.08,-175 710.6,-181.05"/>
</g>
<!-- 10&#45;&gt;9 -->
<g id="edge21" class="edge">
<title>10&#45;&gt;9</title>
<path fill="none" stroke="black" d="M501.2,-358.09C609.47,-337.36 846.32,-293.31 963.16,-272.18"/>
<polygon fill="black" stroke="black" points="963.72,-275.64 972.94,-270.42 962.47,-268.75 963.72,-275.64"/>
</g>
<!-- 10&#45;&gt;10 -->
<g id="edge70" class="edge">
<title>10&#45;&gt;10</title>
<path fill="none" stroke="black" d="M494.42,-391.12C509.69,-390.7 521.69,-383.77 521.69,-370.34 521.69,-360.47 515.22,-354.11 505.73,-351.27"/>
<polygon fill="black" stroke="black" points="506.33,-347.82 495.92,-349.78 505.28,-354.74 506.33,-347.82"/>
</g>
<!-- 10&#45;&gt;12 -->
<g id="edge18" class="edge">
<title>10&#45;&gt;12</title>
<path fill="none" stroke="black" d="M398.02,-393C354.5,-411.63 289.62,-438.42 242.09,-457.4"/>
<polygon fill="black" stroke="black" points="241.03,-454.05 233.03,-461 243.62,-460.56 241.03,-454.05"/>
</g>
<!-- 10&#45;&gt;13 -->
<g id="edge72" class="edge">
<title>10&#45;&gt;13</title>
<path fill="none" stroke="black" d="M472.74,-403.87C501.45,-441.76 545.62,-504.56 573.49,-546.9"/>
<polygon fill="black" stroke="black" points="570.46,-548.67 578.86,-555.13 576.33,-544.84 570.46,-548.67"/>
</g>
<!-- 10&#45;&gt;14 -->
<g id="edge79" class="edge">
<title>10&#45;&gt;14</title>
<path fill="none" stroke="black" d="M451.33,-408.02C461.63,-460.44 485.57,-558.32 531,-629.72 573.29,-696.2 647.5,-750.65 697.92,-782.5"/>
<polygon fill="black" stroke="black" points="696.05,-785.45 706.39,-787.76 699.75,-779.51 696.05,-785.45"/>
</g>
<!-- 11&#45;&gt;2 -->
<g id="edge19" class="edge">
<title>11&#45;&gt;2</title>
<path fill="none" stroke="black" d="M845.31,-554.36C846.04,-546.38 847.04,-537.83 848.23,-529.52"/>
<polygon fill="black" stroke="black" points="851.65,-530.31 849.73,-519.9 844.74,-529.24 851.65,-530.31"/>
</g>
<!-- 11&#45;&gt;11 -->
<g id="edge64" class="edge">
<title>11&#45;&gt;11</title>
<path fill="none" stroke="black" d="M896.42,-613.03C911.69,-612.61 923.69,-605.68 923.69,-592.24 923.69,-582.38 917.22,-576.02 907.73,-573.17"/>
<polygon fill="black" stroke="black" points="908.33,-569.72 897.92,-571.69 907.28,-576.64 908.33,-569.72"/>
</g>
<!-- 11&#45;&gt;14 -->
<g id="edge20" class="edge">
<title>11&#45;&gt;14</title>
<path fill="none" stroke="black" d="M836.31,-629.56C821.65,-667.66 795.62,-727.6 776.02,-768.55"/>
<polygon fill="black" stroke="black" points="772.93,-766.9 771.72,-777.43 779.23,-769.95 772.93,-766.9"/>
</g>
<!-- 12&#45;&gt;0 -->
<g id="edge90" class="edge">
<title>12&#45;&gt;0</title>
<path fill="none" stroke="black" d="M187.41,-518.87C190,-562.51 190,-637.68 190,-702.2 190,-815.15 190,-815.15 190,-815.15 190,-890.13 211.51,-918.28 272,-962.58 315.82,-994.66 461.77,-1016.38 549.88,-1027.16"/>
<polygon fill="black" stroke="black" points="549.27,-1030.61 559.62,-1028.33 550.11,-1023.66 549.27,-1030.61"/>
</g>
<!-- 12&#45;&gt;1 -->
<g id="edge91" class="edge">
<title>12&#45;&gt;1</title>
<path fill="none" stroke="black" d="M155.5,-447.02C104.68,-376.44 2.72,-210.07 88,-110.95 143.75,-46.15 412.55,-38.54 521.74,-38.17"/>
<polygon fill="black" stroke="black" points="521.52,-41.67 531.51,-38.16 521.51,-34.67 521.52,-41.67"/>
</g>
<!-- 12&#45;&gt;3 -->
<g id="edge2" class="edge">
<title>12&#45;&gt;3</title>
<path fill="none" stroke="black" d="M201.12,-516.76C205.48,-528.73 209.64,-542.27 213,-554.77 248.14,-685.28 219.09,-730.47 279,-851.63 284.25,-862.24 291.37,-872.62 298.69,-882.05"/>
<polygon fill="black" stroke="black" points="295.78,-884.01 304.77,-889.6 301.23,-879.62 295.78,-884.01"/>
</g>
<!-- 12&#45;&gt;4 -->
<g id="edge35" class="edge">
<title>12&#45;&gt;4</title>
<path fill="none" stroke="black" d="M182.17,-443.48C186.7,-406.23 196.52,-348.49 205.13,-307.82"/>
<polygon fill="black" stroke="black" points="208.55,-308.57 207.26,-298.06 201.71,-307.08 208.55,-308.57"/>
</g>
<!-- 12&#45;&gt;6 -->
<g id="edge11" class="edge">
<title>12&#45;&gt;6</title>
<path fill="none" stroke="black" d="M174.66,-443.8C168.32,-406.83 158.47,-347.95 151,-296.86 146.14,-263.64 141.32,-226.12 137.74,-197.24"/>
<polygon fill="black" stroke="black" points="141.22,-196.83 136.53,-187.33 134.27,-197.68 141.22,-196.83"/>
</g>
<!-- 12&#45;&gt;10 -->
<g id="edge74" class="edge">
<title>12&#45;&gt;10</title>
<path fill="none" stroke="black" d="M228.26,-458.5C271.85,-439.86 336.65,-413.1 384.09,-394.16"/>
<polygon fill="black" stroke="black" points="385.14,-397.51 393.13,-390.56 382.55,-391 385.14,-397.51"/>
</g>
<!-- 12&#45;&gt;12 -->
<g id="edge88" class="edge">
<title>12&#45;&gt;12</title>
<path fill="none" stroke="black" d="M230.42,-502.07C245.69,-501.65 257.69,-494.73 257.69,-481.29 257.69,-471.42 251.22,-465.07 241.73,-462.22"/>
<polygon fill="black" stroke="black" points="242.33,-458.77 231.92,-460.73 241.28,-465.69 242.33,-458.77"/>
</g>
<!-- 12&#45;&gt;13 -->
<g id="edge92" class="edge">
<title>12&#45;&gt;13</title>
<path fill="none" stroke="black" d="M236.02,-495.44C313.18,-514.85 453.03,-551.25 534.82,-573.17"/>
<polygon fill="black" stroke="black" points="533.7,-576.49 544.26,-575.7 535.51,-569.73 533.7,-576.49"/>
</g>
<!-- 12&#45;&gt;14 -->
<g id="edge89" class="edge">
<title>12&#45;&gt;14</title>
<path fill="none" stroke="black" d="M215.71,-511.85C287.31,-572.37 450.01,-707.5 514,-740.67 568.22,-768.79 635.17,-788 684.07,-799.55"/>
<polygon fill="black" stroke="black" points="683.15,-802.93 693.68,-801.77 684.73,-796.11 683.15,-802.93"/>
</g>
<!-- 13&#45;&gt;0 -->
<g id="edge85" class="edge">
<title>13&#45;&gt;0</title>
<path fill="none" stroke="black" d="M604.58,-629.74C611.77,-709.15 620.46,-897.63 621.22,-986.76"/>
<polygon fill="black" stroke="black" points="617.72,-986.65 621.27,-996.63 624.72,-986.62 617.72,-986.65"/>
</g>
<!-- 13&#45;&gt;1 -->
<g id="edge86" class="edge">
<title>13&#45;&gt;1</title>
<path fill="none" stroke="black" d="M590.69,-554.89C581.51,-511.46 568,-436.5 568,-371.34 568,-371.34 568,-371.34 568,-258.38 568,-199.15 568,-130.95 568,-86.4"/>
<polygon fill="black" stroke="black" points="571.5,-86.57 568,-76.57 564.5,-86.57 571.5,-86.57"/>
</g>
<!-- 13&#45;&gt;3 -->
<g id="edge56" class="edge">
<title>13&#45;&gt;3</title>
<path fill="none" stroke="black" d="M576.07,-626.83C529.58,-688.16 424.52,-817.99 368.16,-883.9"/>
<polygon fill="black" stroke="black" points="365.73,-881.37 361.86,-891.23 371.03,-885.93 365.73,-881.37"/>
</g>
<!-- 13&#45;&gt;7 -->
<g id="edge1" class="edge">
<title>13&#45;&gt;7</title>
<path fill="none" stroke="black" d="M651.21,-610.15C704.46,-628.5 786.86,-657.96 842.81,-678.59"/>
<polygon fill="black" stroke="black" points="841.28,-681.75 851.87,-681.94 843.7,-675.19 841.28,-681.75"/>
</g>
<!-- 13&#45;&gt;8 -->
<g id="edge49" class="edge">
<title>13&#45;&gt;8</title>
<path fill="none" stroke="black" d="M598.97,-554.46C605.99,-485.78 635.03,-334.79 695,-221.91 701.7,-209.3 710.86,-196.91 720.41,-186.04"/>
<polygon fill="black" stroke="black" points="722.89,-188.52 727.08,-178.79 717.73,-183.78 722.89,-188.52"/>
</g>
<!-- 13&#45;&gt;9 -->
<g id="edge87" class="edge">
<title>13&#45;&gt;9</title>
<path fill="none" stroke="black" d="M633.65,-561.59C710.38,-500.15 894.27,-359.25 982.41,-294.31"/>
<polygon fill="black" stroke="black" points="984.45,-297.15 990.44,-288.41 980.3,-291.51 984.45,-297.15"/>
</g>
<!-- 13&#45;&gt;10 -->
<g id="edge48" class="edge">
<title>13&#45;&gt;10</title>
<path fill="none" stroke="black" d="M571.32,-558.8C542.6,-520.89 498.34,-457.97 470.46,-415.6"/>
<polygon fill="black" stroke="black" points="473.48,-413.83 465.09,-407.37 467.62,-417.65 473.48,-413.83"/>
</g>
<!-- 13&#45;&gt;12 -->
<g id="edge26" class="edge">
<title>13&#45;&gt;12</title>
<path fill="none" stroke="black" d="M543.99,-578.1C466.9,-558.7 327.2,-522.34 245.37,-500.42"/>
<polygon fill="black" stroke="black" points="246.49,-497.1 235.93,-497.88 244.68,-503.86 246.49,-497.1"/>
</g>
<!-- 13&#45;&gt;13 -->
<g id="edge83" class="edge">
<title>13&#45;&gt;13</title>
<path fill="none" stroke="black" d="M648.42,-613.03C663.69,-612.61 675.69,-605.68 675.69,-592.24 675.69,-582.38 669.22,-576.02 659.73,-573.17"/>
<polygon fill="black" stroke="black" points="660.33,-569.72 649.92,-571.69 659.28,-576.64 660.33,-569.72"/>
</g>
<!-- 13&#45;&gt;14 -->
<g id="edge84" class="edge">
<title>13&#45;&gt;14</title>
<path fill="none" stroke="black" d="M622.3,-626.96C648.9,-665.44 692.46,-728.45 721.43,-770.36"/>
<polygon fill="black" stroke="black" points="718.49,-772.27 727.05,-778.51 724.25,-768.29 718.49,-772.27"/>
</g>
<!-- 14&#45;&gt;0 -->
<g id="edge36" class="edge">
<title>14&#45;&gt;0</title>
<path fill="none" stroke="black" d="M734.99,-850.32C713.91,-888.87 676.9,-950.74 650.25,-992.12"/>
<polygon fill="black" stroke="black" points="647.4,-990.1 644.88,-1000.39 653.27,-993.91 647.4,-990.1"/>
</g>
<!-- 14&#45;&gt;7 -->
<g id="edge9" class="edge">
<title>14&#45;&gt;7</title>
<path fill="none" stroke="black" d="M786.06,-783.67C805.58,-769.06 830.17,-751.4 851.79,-736.44"/>
<polygon fill="black" stroke="black" points="853.67,-739.4 859.92,-730.85 849.7,-733.63 853.67,-739.4"/>
</g>
<!-- 14&#45;&gt;8 -->
<g id="edge65" class="edge">
<title>14&#45;&gt;8</title>
<path fill="none" stroke="black" d="M748.47,-776.52C746.38,-663.99 753.44,-323.32 760.29,-197.13"/>
<polygon fill="black" stroke="black" points="763.77,-197.64 760.85,-187.46 756.78,-197.24 763.77,-197.64"/>
</g>
<!-- 14&#45;&gt;9 -->
<g id="edge33" class="edge">
<title>14&#45;&gt;9</title>
<path fill="none" stroke="black" d="M807.87,-804.07C907.33,-785.13 1102,-731.11 1102,-593.24 1102,-593.24 1102,-593.24 1102,-480.29 1102,-417.05 1072.42,-349.41 1051.26,-306.1"/>
<polygon fill="black" stroke="black" points="1054.46,-304.67 1046.89,-297.26 1048.18,-307.77 1054.46,-304.67"/>
</g>
<!-- 14&#45;&gt;11 -->
<g id="edge32" class="edge">
<title>14&#45;&gt;11</title>
<path fill="none" stroke="black" d="M761.69,-776.84C776.32,-738.79 802.3,-678.98 821.89,-638.03"/>
<polygon fill="black" stroke="black" points="824.98,-639.68 826.18,-629.16 818.68,-636.63 824.98,-639.68"/>
</g>
<!-- 14&#45;&gt;14 -->
<g id="edge37" class="edge">
<title>14&#45;&gt;14</title>
<path fill="none" stroke="black" d="M800.42,-834.93C815.69,-834.51 827.69,-827.59 827.69,-814.15 827.69,-804.28 821.22,-797.93 811.73,-795.08"/>
<polygon fill="black" stroke="black" points="812.33,-791.63 801.92,-793.59 811.28,-798.55 812.33,-791.63"/>
</g>
</g>
</svg>
